<?xml version="1.0" standalone="no"?>
<!DOCTYPE svg PUBLIC "-//W3C//DTD SVG 20010904//EN"
 "http://www.w3.org/TR/2001/REC-SVG-20010904/DTD/svg10.dtd">
<svg version="1.0" xmlns="http://www.w3.org/2000/svg"
 width="300.000000pt" height="300.000000pt" viewBox="0 0 300.000000 300.000000"
 preserveAspectRatio="xMidYMid meet">
<metadata>
Created by potrace 1.10, written by Peter Selinger 2001-2011
</metadata>
<g transform="translate(0.000000,300.000000) scale(0.100000,-0.100000)"
fill="#000000" stroke="none">
<path d="M1315 2021 c-91 -26 -163 -69 -237 -142 -109 -109 -152 -216 -153
-379 0 -58 3 -117 8 -132 7 -25 12 -28 51 -28 l44 0 -14 47 c-8 25 -14 79 -14
119 0 228 164 416 398 455 125 21 282 -27 374 -115 79 -75 148 -199 148 -268
0 -32 10 -42 53 -55 45 -14 46 -10 17 101 -43 170 -155 304 -310 374 -100 45
-256 55 -365 23z m111 -19 c-2 -4 -19 -9 -36 -10 -18 -1 -41 -7 -52 -13 -11
-6 -22 -8 -26 -5 -8 9 3 16 34 22 16 3 30 6 31 7 6 7 53 6 49 -1z m124 -1 c0
-5 11 -8 25 -5 18 3 25 0 25 -11 0 -13 -4 -14 -22 -4 -13 7 -23 11 -23 9 0 -2
-9 1 -20 8 -17 10 -18 11 -2 12 9 0 17 -4 17 -9z m140 -46 c0 4 7 -1 16 -9 8
-9 22 -16 29 -16 8 0 18 -6 22 -12 4 -7 17 -18 27 -24 11 -6 22 -16 24 -24 3
-7 -21 6 -53 28 -32 23 -64 42 -70 42 -7 0 -19 7 -26 17 -13 15 -12 15 9 4 12
-6 22 -9 22 -6z m231 -233 c34 -68 52 -132 38 -132 -5 0 -9 7 -9 17 0 9 -13
45 -30 80 -16 34 -30 68 -30 73 0 5 -9 15 -20 22 -11 7 -20 18 -20 24 0 6 -7
17 -15 24 -8 7 -15 18 -15 24 1 21 71 -69 101 -132z m-850 80 c-11 -21 -51
-58 -51 -48 0 11 44 65 53 65 4 1 3 -7 -2 -17z m-59 -94 c-7 -7 -12 -20 -12
-29 0 -9 -7 -22 -15 -29 -22 -18 -20 8 2 40 10 14 17 26 15 28 -1 1 -2 7 -2
14 0 9 3 9 12 0 9 -9 9 -15 0 -24z"/>
<path d="M1739 1499 c-94 -14 -171 -45 -393 -158 -160 -82 -231 -113 -291
-126 -89 -20 -195 -16 -244 9 -51 27 -58 17 -10 -13 125 -79 295 -80 477 -5
35 15 129 60 209 101 200 101 259 118 403 118 126 0 222 -23 310 -73 43 -25
44 -25 25 -3 -35 41 -139 101 -215 125 -88 28 -192 37 -271 25z m-74 -68 c-6
-5 -35 -19 -65 -31 -30 -12 -64 -27 -75 -33 -87 -47 -188 -99 -209 -107 -39
-14 -33 8 7 26 17 9 55 29 82 45 28 16 59 33 70 38 143 65 153 69 180 70 11 1
15 -3 10 -8z"/>
<path d="M1743 1355 c-48 -13 -140 -62 -131 -70 2 -2 30 6 63 18 79 28 305 30
373 4 23 -9 42 -13 42 -8 0 12 -79 49 -130 60 -62 14 -155 12 -217 -4z"/>
<path d="M790 1330 c0 -18 115 -63 175 -67 65 -6 165 22 195 53 14 15 13 16
-3 11 -87 -31 -242 -32 -326 -3 -22 9 -41 11 -41 6z"/>
<path d="M1856 1255 c-11 -19 -45 -60 -77 -91 -103 -98 -253 -147 -379 -124
-72 13 -151 42 -191 71 -23 16 -37 19 -79 13 l-52 -7 24 -23 c38 -38 139 -93
207 -114 78 -25 208 -26 295 -4 129 33 260 132 326 247 16 29 30 55 30 60 0 4
-19 7 -43 7 -38 0 -44 -3 -61 -35z"/>
</g>
</svg>
